<svg width="239" height="75" viewBox="0 0 239 75" fill="none" xmlns="http://www.w3.org/2000/svg">
<path d="M194.306 26.9875C194.306 24.8663 195.826 22.5132 197.672 21.7768C199.337 21.1127 200.515 21.1824 202.203 22.0441C204.293 23.1107 205.37 24.7925 205.37 26.9875C205.37 29.3277 204.157 31.0495 201.832 32.0085C200.396 32.6003 199.633 32.6356 198.221 32.1759C195.815 31.3922 194.306 29.3922 194.306 26.9875Z" fill="#1B1B1B"/>
<path fill-rule="evenodd" clip-rule="evenodd" d="M180.132 4.96151C183.809 2.95522 188.435 1.20218 191.935 0.489214C193.094 0.253118 196.485 0.0341854 199.471 0.00298334C208.194 -0.0885426 215.093 1.92191 222.046 6.58193C225.892 9.16026 231.406 14.9285 233.752 18.8277C234.727 20.4492 236.242 23.8257 237.118 26.3318C238.399 29.9928 238.759 32.0116 238.953 36.6082C239.321 45.338 237.535 52.1488 233.089 58.9696L230.8 62.4793L230.441 59.9447C230.242 58.5505 229.719 56.1438 229.278 54.5966L228.476 51.7843L226.894 54.5181C224.684 58.3367 219.197 63.4419 214.917 65.6614L211.314 67.5299L211.048 75H160.585V62.173C160.585 35.188 160.65 33.138 161.631 29.2809C162.207 27.0182 163.683 23.1783 164.912 20.7471C166.684 17.2411 168.13 15.3476 171.901 11.593C174.928 8.57886 177.918 6.16955 180.132 4.96151ZM227.642 24.2901C225.262 19.5953 219.605 13.8494 215.044 11.4957C213.265 10.5779 211.665 9.82642 211.488 9.82642C211.311 9.82642 211.173 11.6403 211.18 13.8567L211.194 17.8869L213.882 19.6873C216.871 21.6894 220.075 25.5678 221.65 29.0916C223.309 32.802 223.962 37.6503 223.326 41.5433L222.777 44.9089L224.798 46.9989C225.908 48.1482 227.19 49.6423 227.646 50.3188C228.464 51.5336 228.488 51.505 229.597 47.9787C230.215 46.015 230.858 42.5163 231.027 40.2037C231.413 34.8889 230.256 29.4468 227.642 24.2901ZM210.639 17.6685L207.159 16.6077C202.724 15.2556 196.767 15.2421 192.544 16.5739C188.636 17.8058 184.432 20.5521 182.036 23.4383C179.728 26.2184 177.673 30.1889 176.958 33.2498C175.777 38.3087 176.598 44.3728 179.139 49.349C180.985 52.9663 185.598 57.2358 189.827 59.2426C192.988 60.7424 194.207 61.0237 198.356 61.2115C202.253 61.3883 203.922 61.2136 206.918 60.3155L210.639 59.1995V17.6685Z" fill="#1B1B1B"/>
<path d="M18.8484 6.46853V75H0V6.46853H18.8484Z" fill="#1B1B1B"/>
<path d="M87.8517 6.46853V75H72.1221L47.0362 38.9942H46.6294V75H27.781V6.46853H43.7818L68.461 42.3405H69.0033V6.46853H87.8517Z" fill="#1B1B1B"/>
<path d="M96.7674 75V6.46853H115.616V34.1756H116.565L137.447 6.46853H159.415L135.956 36.9865L159.957 75H137.447L121.853 49.3007L115.616 57.3317V75H96.7674Z" fill="#1B1B1B"/>
</svg>
